<svg version="1.1" xmlns="http://www.w3.org/2000/svg" xmlns:xlink="http://www.w3.org/1999/xlink" width="800" height="800"><defs/><g transform="scale(2,2)"><g id="background-fde0c4ea"><rect fill="white" stroke="none" x="0" y="0" width="400" height="400" class="dcg-svg-background"/></g><g id="background-images-fde0c4ea"/><g id="graphpaper-fde0c4ea"><g id="grid-fde0c4ea"><g><path fill="none" stroke="rgb(0,0,0)" class="dcg-svg-minor-gridline" paint-order="fill stroke markers" d=" M 9.5 0 L 9.5 400" stroke-opacity="0.3" stroke-miterlimit="10" stroke-dasharray=""/><path fill="none" stroke="rgb(0,0,0)" class="dcg-svg-minor-gridline" paint-order="fill stroke markers" d=" M 25.5 0 L 25.5 400" stroke-opacity="0.3" stroke-miterlimit="10" stroke-dasharray=""/><path fill="none" stroke="rgb(0,0,0)" class="dcg-svg-minor-gridline" paint-order="fill stroke markers" d=" M 41.5 0 L 41.5 400" stroke-opacity="0.3" stroke-miterlimit="10" stroke-dasharray=""/><path fill="none" stroke="rgb(0,0,0)" class="dcg-svg-minor-gridline" paint-order="fill stroke markers" d=" M 58.5 0 L 58.5 400" stroke-opacity="0.3" stroke-miterlimit="10" stroke-dasharray=""/><path fill="none" stroke="rgb(0,0,0)" class="dcg-svg-minor-gridline" paint-order="fill stroke markers" d=" M 74.5 0 L 74.5 400" stroke-opacity="0.3" stroke-miterlimit="10" stroke-dasharray=""/><path fill="none" stroke="rgb(0,0,0)" class="dcg-svg-minor-gridline" paint-order="fill stroke markers" d=" M 90.5 0 L 90.5 400" stroke-opacity="0.3" stroke-miterlimit="10" stroke-dasharray=""/><path fill="none" stroke="rgb(0,0,0)" class="dcg-svg-minor-gridline" paint-order="fill stroke markers" d=" M 122.5 0 L 122.5 400" stroke-opacity="0.3" stroke-miterlimit="10" stroke-dasharray=""/><path fill="none" stroke="rgb(0,0,0)" class="dcg-svg-minor-gridline" paint-order="fill stroke markers" d=" M 138.5 0 L 138.5 400" stroke-opacity="0.3" stroke-miterlimit="10" stroke-dasharray=""/><path fill="none" stroke="rgb(0,0,0)" class="dcg-svg-minor-gridline" paint-order="fill stroke markers" d=" M 154.5 0 L 154.5 400" stroke-opacity="0.3" stroke-miterlimit="10" stroke-dasharray=""/><path fill="none" stroke="rgb(0,0,0)" class="dcg-svg-minor-gridline" paint-order="fill stroke markers" d=" M 170.5 0 L 170.5 400" stroke-opacity="0.3" stroke-miterlimit="10" stroke-dasharray=""/><path fill="none" stroke="rgb(0,0,0)" class="dcg-svg-minor-gridline" paint-order="fill stroke markers" d=" M 186.5 0 L 186.5 400" stroke-opacity="0.3" stroke-miterlimit="10" stroke-dasharray=""/><path fill="none" stroke="rgb(0,0,0)" class="dcg-svg-minor-gridline" paint-order="fill stroke markers" d=" M 203.5 0 L 203.5 400" stroke-opacity="0.3" stroke-miterlimit="10" stroke-dasharray=""/><path fill="none" stroke="rgb(0,0,0)" class="dcg-svg-minor-gridline" paint-order="fill stroke markers" d=" M 219.5 0 L 219.5 400" stroke-opacity="0.3" stroke-miterlimit="10" stroke-dasharray=""/><path fill="none" stroke="rgb(0,0,0)" class="dcg-svg-minor-gridline" paint-order="fill stroke markers" d=" M 235.5 0 L 235.5 400" stroke-opacity="0.3" stroke-miterlimit="10" stroke-dasharray=""/><path fill="none" stroke="rgb(0,0,0)" class="dcg-svg-minor-gridline" paint-order="fill stroke markers" d=" M 251.5 0 L 251.5 400" stroke-opacity="0.3" stroke-miterlimit="10" stroke-dasharray=""/><path fill="none" stroke="rgb(0,0,0)" class="dcg-svg-minor-gridline" paint-order="fill stroke markers" d=" M 267.5 0 L 267.5 400" stroke-opacity="0.3" stroke-miterlimit="10" stroke-dasharray=""/><path fill="none" stroke="rgb(0,0,0)" class="dcg-svg-minor-gridline" paint-order="fill stroke markers" d=" M 283.5 0 L 283.5 400" stroke-opacity="0.3" stroke-miterlimit="10" stroke-dasharray=""/><path fill="none" stroke="rgb(0,0,0)" class="dcg-svg-minor-gridline" paint-order="fill stroke markers" d=" M 299.5 0 L 299.5 400" stroke-opacity="0.3" stroke-miterlimit="10" stroke-dasharray=""/><path fill="none" stroke="rgb(0,0,0)" class="dcg-svg-minor-gridline" paint-order="fill stroke markers" d=" M 315.5 0 L 315.5 400" stroke-opacity="0.3" stroke-miterlimit="10" stroke-dasharray=""/><path fill="none" stroke="rgb(0,0,0)" class="dcg-svg-minor-gridline" paint-order="fill stroke markers" d=" M 331.5 0 L 331.5 400" stroke-opacity="0.3" stroke-miterlimit="10" stroke-dasharray=""/><path fill="none" stroke="rgb(0,0,0)" class="dcg-svg-minor-gridline" paint-order="fill stroke markers" d=" M 348.5 0 L 348.5 400" stroke-opacity="0.3" stroke-miterlimit="10" stroke-dasharray=""/><path fill="none" stroke="rgb(0,0,0)" class="dcg-svg-minor-gridline" paint-order="fill stroke markers" d=" M 364.5 0 L 364.5 400" stroke-opacity="0.3" stroke-miterlimit="10" stroke-dasharray=""/><path fill="none" stroke="rgb(0,0,0)" class="dcg-svg-minor-gridline" paint-order="fill stroke markers" d=" M 380.5 0 L 380.5 400" stroke-opacity="0.3" stroke-miterlimit="10" stroke-dasharray=""/><path fill="none" stroke="rgb(0,0,0)" class="dcg-svg-minor-gridline" paint-order="fill stroke markers" d=" M 396.5 0 L 396.5 400" stroke-opacity="0.3" stroke-miterlimit="10" stroke-dasharray=""/><path fill="none" stroke="rgb(0,0,0)" class="dcg-svg-minor-gridline" paint-order="fill stroke markers" d=" M 0 385.5 L 400 385.5" stroke-opacity="0.3" stroke-miterlimit="10" stroke-dasharray=""/><path fill="none" stroke="rgb(0,0,0)" class="dcg-svg-minor-gridline" paint-order="fill stroke markers" d=" M 0 369.5 L 400 369.5" stroke-opacity="0.3" stroke-miterlimit="10" stroke-dasharray=""/><path fill="none" stroke="rgb(0,0,0)" class="dcg-svg-minor-gridline" paint-order="fill stroke markers" d=" M 0 353.5 L 400 353.5" stroke-opacity="0.3" stroke-miterlimit="10" stroke-dasharray=""/><path fill="none" stroke="rgb(0,0,0)" class="dcg-svg-minor-gridline" paint-order="fill stroke markers" d=" M 0 337.5 L 400 337.5" stroke-opacity="0.3" stroke-miterlimit="10" stroke-dasharray=""/><path fill="none" stroke="rgb(0,0,0)" class="dcg-svg-minor-gridline" paint-order="fill stroke markers" d=" M 0 321.5 L 400 321.5" stroke-opacity="0.3" stroke-miterlimit="10" stroke-dasharray=""/><path fill="none" stroke="rgb(0,0,0)" class="dcg-svg-minor-gridline" paint-order="fill stroke markers" d=" M 0 305.5 L 400 305.5" stroke-opacity="0.3" stroke-miterlimit="10" stroke-dasharray=""/><path fill="none" stroke="rgb(0,0,0)" class="dcg-svg-minor-gridline" paint-order="fill stroke markers" d=" M 0 289.5 L 400 289.5" stroke-opacity="0.3" stroke-miterlimit="10" stroke-dasharray=""/><path fill="none" stroke="rgb(0,0,0)" class="dcg-svg-minor-gridline" paint-order="fill stroke markers" d=" M 0 273.5 L 400 273.5" stroke-opacity="0.3" stroke-miterlimit="10" stroke-dasharray=""/><path fill="none" stroke="rgb(0,0,0)" class="dcg-svg-minor-gridline" paint-order="fill stroke markers" d=" M 0 256.5 L 400 256.5" stroke-opacity="0.3" stroke-miterlimit="10" stroke-dasharray=""/><path fill="none" stroke="rgb(0,0,0)" class="dcg-svg-minor-gridline" paint-order="fill stroke markers" d=" M 0 240.5 L 400 240.5" stroke-opacity="0.3" stroke-miterlimit="10" stroke-dasharray=""/><path fill="none" stroke="rgb(0,0,0)" class="dcg-svg-minor-gridline" paint-order="fill stroke markers" d=" M 0 224.5 L 400 224.5" stroke-opacity="0.3" stroke-miterlimit="10" stroke-dasharray=""/><path fill="none" stroke="rgb(0,0,0)" class="dcg-svg-minor-gridline" paint-order="fill stroke markers" d=" M 0 208.5 L 400 208.5" stroke-opacity="0.3" stroke-miterlimit="10" stroke-dasharray=""/><path fill="none" stroke="rgb(0,0,0)" class="dcg-svg-minor-gridline" paint-order="fill stroke markers" d=" M 0 176.5 L 400 176.5" stroke-opacity="0.3" stroke-miterlimit="10" stroke-dasharray=""/><path fill="none" stroke="rgb(0,0,0)" class="dcg-svg-minor-gridline" paint-order="fill stroke markers" d=" M 0 160.5 L 400 160.5" stroke-opacity="0.3" stroke-miterlimit="10" stroke-dasharray=""/><path fill="none" stroke="rgb(0,0,0)" class="dcg-svg-minor-gridline" paint-order="fill stroke markers" d=" M 0 144.5 L 400 144.5" stroke-opacity="0.3" stroke-miterlimit="10" stroke-dasharray=""/><path fill="none" stroke="rgb(0,0,0)" class="dcg-svg-minor-gridline" paint-order="fill stroke markers" d=" M 0 128.5 L 400 128.5" stroke-opacity="0.3" stroke-miterlimit="10" stroke-dasharray=""/><path fill="none" stroke="rgb(0,0,0)" class="dcg-svg-minor-gridline" paint-order="fill stroke markers" d=" M 0 111.5 L 400 111.5" stroke-opacity="0.3" stroke-miterlimit="10" stroke-dasharray=""/><path fill="none" stroke="rgb(0,0,0)" class="dcg-svg-minor-gridline" paint-order="fill stroke markers" d=" M 0 95.5 L 400 95.5" stroke-opacity="0.3" stroke-miterlimit="10" stroke-dasharray=""/><path fill="none" stroke="rgb(0,0,0)" class="dcg-svg-minor-gridline" paint-order="fill stroke markers" d=" M 0 79.5 L 400 79.5" stroke-opacity="0.3" stroke-miterlimit="10" stroke-dasharray=""/><path fill="none" stroke="rgb(0,0,0)" class="dcg-svg-minor-gridline" paint-order="fill stroke markers" d=" M 0 63.5 L 400 63.5" stroke-opacity="0.3" stroke-miterlimit="10" stroke-dasharray=""/><path fill="none" stroke="rgb(0,0,0)" class="dcg-svg-minor-gridline" paint-order="fill stroke markers" d=" M 0 47.5 L 400 47.5" stroke-opacity="0.3" stroke-miterlimit="10" stroke-dasharray=""/><path fill="none" stroke="rgb(0,0,0)" class="dcg-svg-minor-gridline" paint-order="fill stroke markers" d=" M 0 31.5 L 400 31.5" stroke-opacity="0.3" stroke-miterlimit="10" stroke-dasharray=""/><path fill="none" stroke="rgb(0,0,0)" class="dcg-svg-minor-gridline" paint-order="fill stroke markers" d=" M 0 15.5 L 400 15.5" stroke-opacity="0.3" stroke-miterlimit="10" stroke-dasharray=""/><path fill="none" stroke="rgb(0,0,0)" class="dcg-svg-major-gridline" paint-order="fill stroke markers" d=" M 25.5 0 L 25.5 400" stroke-opacity="0.4285714285714285" stroke-miterlimit="10" stroke-dasharray=""/><path fill="none" stroke="rgb(0,0,0)" class="dcg-svg-major-gridline" paint-order="fill stroke markers" d=" M 186.5 0 L 186.5 400" stroke-opacity="0.4285714285714285" stroke-miterlimit="10" stroke-dasharray=""/><path fill="none" stroke="rgb(0,0,0)" class="dcg-svg-major-gridline" paint-order="fill stroke markers" d=" M 267.5 0 L 267.5 400" stroke-opacity="0.4285714285714285" stroke-miterlimit="10" stroke-dasharray=""/><path fill="none" stroke="rgb(0,0,0)" class="dcg-svg-major-gridline" paint-order="fill stroke markers" d=" M 348.5 0 L 348.5 400" stroke-opacity="0.4285714285714285" stroke-miterlimit="10" stroke-dasharray=""/><path fill="none" stroke="rgb(0,0,0)" class="dcg-svg-major-gridline" paint-order="fill stroke markers" d=" M 0 353.5 L 400 353.5" stroke-opacity="0.4285714285714285" stroke-miterlimit="10" stroke-dasharray=""/><path fill="none" stroke="rgb(0,0,0)" class="dcg-svg-major-gridline" paint-order="fill stroke markers" d=" M 0 273.5 L 400 273.5" stroke-opacity="0.4285714285714285" stroke-miterlimit="10" stroke-dasharray=""/><path fill="none" stroke="rgb(0,0,0)" class="dcg-svg-major-gridline" paint-order="fill stroke markers" d=" M 0 111.5 L 400 111.5" stroke-opacity="0.4285714285714285" stroke-miterlimit="10" stroke-dasharray=""/><path fill="none" stroke="rgb(0,0,0)" class="dcg-svg-major-gridline" paint-order="fill stroke markers" d=" M 0 31.5 L 400 31.5" stroke-opacity="0.4285714285714285" stroke-miterlimit="10" stroke-dasharray=""/></g></g><g id="axis-fde0c4ea"><g id="yaxis-fde0c4ea"><title>Y axis</title><g><path fill="none" stroke="rgb(0,0,0)" class="dcg-svg-axis-line" paint-order="fill stroke markers" d=" M 106 0 L 106 400" stroke-opacity="0.9" stroke-miterlimit="10" stroke-width="2" stroke-dasharray=""/></g></g><g id="xaxis-fde0c4ea"><title>X axis</title><g><path fill="none" stroke="rgb(0,0,0)" class="dcg-svg-axis-line" paint-order="fill stroke markers" d=" M 0 192 L 400 192" stroke-opacity="0.9" stroke-miterlimit="10" stroke-width="2" stroke-dasharray=""/></g></g><g><g class="dcg-svg-axis-value"><text fill="none" stroke="#ffffff" font-family="Arial" font-size="17px" font-style="normal" font-weight="normal" text-decoration="normal" x="96.61518368684814" y="210.58600207719235" text-anchor="middle" stroke-miterlimit="2" stroke-width="3" stroke-dasharray="">0</text><text fill="#000000" stroke="none" font-family="Arial" font-size="17px" font-style="normal" font-weight="normal" text-decoration="normal" x="96.61518368684814" y="210.58600207719235" text-anchor="middle">0</text></g><g class="dcg-svg-axis-value"><text fill="none" stroke="#ffffff" font-family="Arial" font-size="17px" font-style="normal" font-weight="normal" text-decoration="normal" x="22.959550272817054" y="210.58600207719235" text-anchor="middle" stroke-miterlimit="2" stroke-width="3" stroke-dasharray="">-10</text><text fill="#000000" stroke="none" font-family="Arial" font-size="17px" font-style="normal" font-weight="normal" text-decoration="normal" x="22.959550272817054" y="210.58600207719235" text-anchor="middle">-10</text></g><g class="dcg-svg-axis-value"><text fill="none" stroke="#ffffff" font-family="Arial" font-size="17px" font-style="normal" font-weight="normal" text-decoration="normal" x="186.90414983021884" y="210.58600207719235" text-anchor="middle" stroke-miterlimit="2" stroke-width="3" stroke-dasharray="">10</text><text fill="#000000" stroke="none" font-family="Arial" font-size="17px" font-style="normal" font-weight="normal" text-decoration="normal" x="186.90414983021884" y="210.58600207719235" text-anchor="middle">10</text></g><g class="dcg-svg-axis-value"><text fill="none" stroke="#ffffff" font-family="Arial" font-size="17px" font-style="normal" font-weight="normal" text-decoration="normal" x="267.4597828627802" y="210.58600207719235" text-anchor="middle" stroke-miterlimit="2" stroke-width="3" stroke-dasharray="">20</text><text fill="#000000" stroke="none" font-family="Arial" font-size="17px" font-style="normal" font-weight="normal" text-decoration="normal" x="267.4597828627802" y="210.58600207719235" text-anchor="middle">20</text></g><g class="dcg-svg-axis-value"><text fill="none" stroke="#ffffff" font-family="Arial" font-size="17px" font-style="normal" font-weight="normal" text-decoration="normal" x="348.01541589534156" y="210.58600207719235" text-anchor="middle" stroke-miterlimit="2" stroke-width="3" stroke-dasharray="">30</text><text fill="#000000" stroke="none" font-family="Arial" font-size="17px" font-style="normal" font-weight="normal" text-decoration="normal" x="348.01541589534156" y="210.58600207719235" text-anchor="middle">30</text></g><g class="dcg-svg-axis-value"><text fill="none" stroke="#ffffff" font-family="Arial" font-size="17px" font-style="normal" font-weight="normal" text-decoration="normal" x="89.0485166069226" y="358.1972681423151" text-anchor="middle" stroke-miterlimit="2" stroke-width="3" stroke-dasharray="">-20</text><text fill="#000000" stroke="none" font-family="Arial" font-size="17px" font-style="normal" font-weight="normal" text-decoration="normal" x="89.0485166069226" y="358.1972681423151" text-anchor="middle">-20</text></g><g class="dcg-svg-axis-value"><text fill="none" stroke="#ffffff" font-family="Arial" font-size="17px" font-style="normal" font-weight="normal" text-decoration="normal" x="89.0485166069226" y="277.64163510975374" text-anchor="middle" stroke-miterlimit="2" stroke-width="3" stroke-dasharray="">-10</text><text fill="#000000" stroke="none" font-family="Arial" font-size="17px" font-style="normal" font-weight="normal" text-decoration="normal" x="89.0485166069226" y="277.64163510975374" text-anchor="middle">-10</text></g><g class="dcg-svg-axis-value"><text fill="none" stroke="#ffffff" font-family="Arial" font-size="17px" font-style="normal" font-weight="normal" text-decoration="normal" x="91.88185057603881" y="116.53036904463099" text-anchor="middle" stroke-miterlimit="2" stroke-width="3" stroke-dasharray="">10</text><text fill="#000000" stroke="none" font-family="Arial" font-size="17px" font-style="normal" font-weight="normal" text-decoration="normal" x="91.88185057603881" y="116.53036904463099" text-anchor="middle">10</text></g><g class="dcg-svg-axis-value"><text fill="none" stroke="#ffffff" font-family="Arial" font-size="17px" font-style="normal" font-weight="normal" text-decoration="normal" x="91.88185057603881" y="35.974736012069634" text-anchor="middle" stroke-miterlimit="2" stroke-width="3" stroke-dasharray="">20</text><text fill="#000000" stroke="none" font-family="Arial" font-size="17px" font-style="normal" font-weight="normal" text-decoration="normal" x="91.88185057603881" y="35.974736012069634" text-anchor="middle">20</text></g></g></g></g><g id="expressions-fde0c4ea"><g id="sketch-fde0c4ea"><title>Expression 2</title><path fill="#2d70b3" stroke="none" paint-order="stroke fill markers" d="" fill-opacity="0.3"/><path fill="#2d70b3" stroke="none" paint-order="stroke fill markers" d="" fill-opacity="0.3"/><path fill="#2d70b3" stroke="none" paint-order="stroke fill markers" d="" fill-opacity="0.3"/><path fill="#2d70b3" stroke="none" class="dcg-svg-region" paint-order="stroke fill markers" d=" M 106.34851679765747 400 L 106.34851679765747 0 L 400 0 L 400 400 L 106.34851679765747 400" fill-opacity="0.3"/><g><path fill="none" stroke="#2d70b3" class="dcg-svg-curve" paint-order="fill stroke markers" d=" M 106.34851679765747 400 L 106.34851679765747 384.6 M 106.34851679765747 374.8 L 106.34851679765747 359.40000000000003 M 106.34851679765747 349.6 L 106.34851679765747 334.20000000000005 M 106.34851679765747 324.40000000000003 L 106.34851679765747 309.00000000000006 M 106.34851679765747 299.20000000000005 L 106.34851679765747 283.80000000000007 M 106.34851679765747 274.00000000000006 L 106.34851679765747 258.6000000000001 M 106.34851679765747 248.80000000000007 L 106.34851679765747 233.40000000000006 M 106.34851679765747 223.60000000000005 L 106.34851679765747 208.20000000000005 M 106.34851679765747 198.40000000000003 L 106.34851679765747 183.00000000000003 M 106.34851679765747 173.20000000000002 L 106.34851679765747 157.8 M 106.34851679765747 148 L 106.34851679765747 132.6 M 106.34851679765747 122.8 L 106.34851679765747 107.39999999999999 M 106.34851679765747 97.6 L 106.34851679765747 82.19999999999999 M 106.34851679765747 72.39999999999999 L 106.34851679765747 56.99999999999999 M 106.34851679765747 47.199999999999996 L 106.34851679765747 31.799999999999997 M 106.34851679765747 22 L 106.34851679765747 6.599999999999998" stroke-linecap="round" stroke-linejoin="round" stroke-miterlimit="10" stroke-width="3.5" stroke-opacity="0.9" stroke-dasharray=""/></g><path fill="#2d70b3" stroke="none" paint-order="stroke fill markers" d="" fill-opacity="0.3"/></g><g id="sketch-fde0c4ea"><title>Expression 3</title><path fill="#2d70b3" stroke="none" class="dcg-svg-region" paint-order="stroke fill markers" d=" M 0 192.46200207719235 L 400 192.46200207719235 L 400 400 L 0 400 L 0 192.46200207719235" fill-opacity="0.3"/><g><path fill="none" stroke="#2d70b3" class="dcg-svg-curve" paint-order="fill stroke markers" d=" M 0 192.46200207719235 L 15.4 192.46200207719235 M 25.2 192.46200207719235 L 40.6 192.46200207719235 M 50.4 192.46200207719235 L 65.8 192.46200207719235 M 75.6 192.46200207719235 L 91 192.46200207719235 M 100.8 192.46200207719235 L 116.19999999999999 192.46200207719235 M 125.99999999999999 192.46200207719235 L 141.39999999999998 192.46200207719235 M 151.19999999999996 192.46200207719235 L 166.59999999999997 192.46200207719235 M 176.39999999999998 192.46200207719235 L 191.79999999999998 192.46200207719235 M 201.59999999999997 192.46200207719235 L 216.99999999999997 192.46200207719235 M 226.79999999999998 192.46200207719235 L 242.2 192.46200207719235 M 252 192.46200207719235 L 267.4 192.46200207719235 M 277.2 192.46200207719235 L 292.59999999999997 192.46200207719235 M 302.4 192.46200207719235 L 317.79999999999995 192.46200207719235 M 327.59999999999997 192.46200207719235 L 343 192.46200207719235 M 352.8 192.46200207719235 L 368.2 192.46200207719235 M 378 192.46200207719235 L 393.4 192.46200207719235" stroke-linecap="round" stroke-linejoin="round" stroke-miterlimit="10" stroke-width="3.5" stroke-opacity="0.9" stroke-dasharray=""/></g><path fill="#2d70b3" stroke="none" paint-order="stroke fill markers" d="" fill-opacity="0.3"/><path fill="#2d70b3" stroke="none" paint-order="stroke fill markers" d="" fill-opacity="0.3"/><path fill="#2d70b3" stroke="none" paint-order="stroke fill markers" d="" fill-opacity="0.3"/><path fill="#2d70b3" stroke="none" paint-order="stroke fill markers" d="" fill-opacity="0.3"/></g><g id="sketch-fde0c4ea"><title>Expression 4</title><path fill="#2d70b3" stroke="none" paint-order="stroke fill markers" d="" fill-opacity="0.3"/><path fill="#2d70b3" stroke="none" paint-order="stroke fill markers" d="" fill-opacity="0.3"/><path fill="#2d70b3" stroke="none" paint-order="stroke fill markers" d="" fill-opacity="0.3"/><path fill="#2d70b3" stroke="none" class="dcg-svg-region" paint-order="stroke fill markers" d=" M 0 -3 L 8.617515759061291 -3 L 211.6175157590613 403 L 400 403 L 400 0 L 0 0 L 0 -3" fill-opacity="0.3"/><g><path fill="none" stroke="#2d70b3" class="dcg-svg-curve" paint-order="fill stroke markers" d=" M 6.867515759061291 -6.5 L 13.754605129760643 7.274178741398703 M 18.13729836566023 16.039565213197875 L 25.02438773635958 29.81374395459658 M 29.407080972259166 38.57913042639575 L 36.294170342958516 52.35330916779446 M 40.676863578858104 61.11869563959363 L 47.563952949557454 74.89287438099234 M 51.94664618545704 83.65826085279151 L 58.83373555615639 97.43243959419021 M 63.21642879205598 106.19782606598939 L 70.10351816275534 119.97200480738809 M 74.48621139865492 128.73739127918725 L 81.37330076935427 142.51157002058596 M 85.75599400525385 151.27695649238512 L 92.64308337595321 165.05113523378384 M 97.02577661185279 173.816521705583 L 103.91286598255215 187.5907004469817 M 108.29555921845173 196.35608691878087 L 115.18264858915109 210.1302656601796 M 119.56534182505067 218.89565213197875 L 126.45243119575002 232.66983087337746 M 130.8351244316496 241.43521734517662 L 137.72221380234896 255.20939608657534 M 142.10490703824854 263.9747825583745 L 148.9919964089479 277.7489612997732 M 153.37468964484748 286.5143477715724 L 160.26177901554684 300.2885265129711 M 164.64447225144642 309.05391298477025 L 171.53156162214577 322.82809172616896 M 175.91425485804535 331.5934781979681 L 182.8013442287447 345.36765693936684 M 187.1840374646443 354.133043411166 L 194.07112683534365 367.9072221525647 M 198.45382007124323 376.6726086243639 L 205.34090944194259 390.4467873657626 M 209.7236026778422 399.2121738375618 L 213.3675157590613 406.5" stroke-linecap="round" stroke-linejoin="round" stroke-miterlimit="10" stroke-width="3.5" stroke-opacity="0.9" stroke-dasharray=""/></g><path fill="#2d70b3" stroke="none" paint-order="stroke fill markers" d="" fill-opacity="0.3"/></g><g id="sketch-fde0c4ea"><title>Expression 5</title><path fill="#2d70b3" stroke="none" paint-order="stroke fill markers" d="" fill-opacity="0.6"/><path fill="#2d70b3" stroke="none" paint-order="stroke fill markers" d="" fill-opacity="0.6"/><g><path fill="none" stroke="#2d70b3" class="dcg-svg-curve" paint-order="fill stroke markers" d=" M 134.263569549345 221.11527467167386 L 134.54669370831738 224.71381679748333 M 134.54669370831738 224.71381679748333 L 135.0348388099939 227.79662229299808 M 135.0348388099939 227.79662229299808 L 135.8158709726763 231.3961276386341 M 135.8158709726763 231.3961276386341 L 136.9874192166999 235.7514831332142 M 136.9874192166999 235.7514831332142 L 137.13025056425562 236.20521900590828 M 140.2315298994547 245.4999637519244 L 140.89258003011193 247.36747741722445 M 140.89258003011193 247.36747741722445 L 143.91907966050624 255.18891587252077 M 143.91907966050624 255.18891587252077 L 145.84504466553884 259.8381514314487 M 149.6708835637946 268.86005062079187 L 153.19383659235982 276.93415784138233 M 153.19383659235982 276.93415784138233 L 155.91833740451554 282.93544437759294 M 159.9694693036061 291.8589151337601 L 160.32075507683675 292.6326959936687 M 160.32075507683675 292.6326959936687 L 166.4858409004884 305.81224095555643 M 170.65185771264103 314.68259999406445 L 177.29578313497737 328.5757009791733 M 181.52373567646413 337.4167652424244 L 183.06831681496183 340.64663619562623 M 183.06831681496183 340.64663619562623 L 188.234042825377 351.2778666805608 M 192.51703357843874 360.092399578519 L 199.24744761896432 373.94380841816763 M 203.54769667444336 382.74990862157773 L 210.33884220805484 396.5716430402862 M 214.6604802748985 405.3672922158279 L 215.21702283145027 406.5" stroke-linecap="round" stroke-linejoin="round" stroke-miterlimit="10" stroke-width="3.5" stroke-opacity="0.9" stroke-dasharray=""/></g><path fill="#2d70b3" stroke="none" paint-order="stroke fill markers" d="" fill-opacity="0.6"/><g><path fill="none" stroke="#2d70b3" class="dcg-svg-curve" paint-order="fill stroke markers" d=" M 134.263569549345 219.6388349860859 L 134.44906468798206 217.2556495844961 M 134.44906468798206 217.2556495844961 L 134.83958076932328 215.2054122106081 M 134.83958076932328 215.2054122106081 L 135.42535489133508 213.3683253809232 M 135.42535489133508 213.3683253809232 L 136.20638705401748 211.6997398177866 M 136.20638705401748 211.6997398177866 L 137.2803062777058 210.04948944567167 M 137.2803062777058 210.04948944567167 L 138.64711256240003 208.4973236703223 M 138.64711256240003 208.4973236703223 L 140.3068059081001 207.06931711098437 M 140.3068059081001 207.06931711098437 L 141.07723269546304 206.5566863611511 M 149.9856838502516 202.57520678641302 L 150.8507401043126 202.2980649728329 M 150.8507401043126 202.2980649728329 L 154.9511589583952 201.27128268840127 M 154.9511589583952 201.27128268840127 L 159.93023899549556 200.30210480115204 M 159.93023899549556 200.30210480115204 L 165.06506272564056 199.53313825799358 M 174.80070577929644 198.42146126766008 L 183.26357485563244 197.7026507935588 M 183.26357485563244 197.7026507935588 L 190.1568813252935 197.27339058268686 M 199.94222080366947 196.74444664576873 L 210.89258761052253 196.25510495161953 M 210.89258761052253 196.25510495161953 L 215.32913021446151 196.1165710933683 M 225.12435600820427 195.81070895187898 L 231.2970528606004 195.61796257545095 M 231.2970528606004 195.61796257545095 L 240.51928778845814 195.42304415362418 M 250.31709960356832 195.21596050944288 L 258.53554953414925 195.04225778956396 M 258.53554953414925 195.04225778956396 L 265.7145833545751 194.94338775701092 M 275.51365410651783 194.8084344375994 L 290.9121938595707 194.59636493566703 M 300.7115373528676 194.48583897760872 L 316.11097332126195 194.3540366433276 M 325.9106143920584 194.27016243060322 L 341.31005036045275 194.13836009632206 M 351.1097296622323 194.05992364956143 L 366.5094965384143 193.97518782921298 M 376.30934818689366 193.92126503444578 L 391.7091150630756 193.83652921409734" stroke-linecap="round" stroke-linejoin="round" stroke-miterlimit="10" stroke-width="3.5" stroke-opacity="0.9" stroke-dasharray=""/></g><path fill="#2d70b3" stroke="none" paint-order="stroke fill markers" d="" fill-opacity="0.6"/><path fill="#2d70b3" stroke="none" class="dcg-svg-region" paint-order="stroke fill markers" d=" M 134.263569549345 221.11527467167386 L 134.54669370831738 224.71381679748333 L 135.0348388099939 227.79662229299808 L 135.8158709726763 231.3961276386341 L 136.9874192166999 235.7514831332142 L 138.64711256240003 241.0238720135475 L 140.89258003011193 247.36747741722445 L 143.91907966050624 255.18891587252077 L 147.92186949425357 264.8515591611294 L 153.19383659235982 276.93415784138233 L 160.32075507683675 292.6326959936687 L 169.88839906969622 313.08613294331656 L 183.06831681496183 340.64663619562623 L 201.61783067866898 378.8221330901491 L 213.497339277448 403 L 400 403 L 400 193.79090937178458 L 349.3305384459789 194.06971348784134 L 296.0250933429047 194.5259498142172 L 258.53554953414925 195.04225778956396 L 231.2970528606004 195.61796257545095 L 210.89258761052253 196.25510495161953 L 195.3695733772097 196.94878564900745 L 183.26357485563244 197.7026507935588 L 173.69593086277297 198.51529750385353 L 166.0808672766195 199.38101624657864 L 159.93023899549556 200.30210480115204 L 154.9511589583952 201.27128268840127 L 150.8507401043126 202.2980649728329 L 147.43372439257706 203.39278907538292 L 144.60248280285336 204.5499459633599 L 142.25938631480614 205.77009858118012 L 140.3068059081001 207.06931711098437 L 138.64711256240003 208.4973236703223 L 137.2803062777058 210.04948944567167 L 136.20638705401748 211.6997398177866 L 135.42535489133508 213.3683253809232 L 134.83958076932328 215.2054122106081 L 134.44906468798206 217.2556495844961 L 134.263569549345 219.6388349860859" fill-opacity="0.6"/></g></g><g id="labels-fde0c4ea"/></g></svg>